<svg width="98" height="46" viewBox="0 0 98 46" fill="none" xmlns="http://www.w3.org/2000/svg"><path fill-rule="evenodd" clip-rule="evenodd" d="M57.195 27.941c-.842-.924-1.271-2.037-1.271-3.358 0-1.302.43-2.415 1.27-3.34.842-.924 1.934-1.377 3.241-1.377.95 0 1.808.227 2.578.698v.83c-.805-.49-1.629-.735-2.488-.735-1.074 0-1.97.377-2.703 1.132-.717.754-1.075 1.698-1.075 2.811s.358 2.056 1.075 2.811c.733.736 1.629 1.113 2.703 1.113 1.002 0 1.88-.283 2.65-.849v.849c-.752.528-1.665.793-2.758.793-1.306 0-2.38-.453-3.222-1.378zM84.054 29.092h-.806V16h.806v5.659c.77-.982 2.112-1.793 3.634-1.793 2.166 0 3.312 1.358 3.312 3.755v5.471h-.805v-5.301c0-1.284-.376-2.19-.967-2.585-.573-.397-1.11-.547-1.772-.547-.663 0-1.307.207-1.952.64-.644.416-1.128.907-1.45 1.454v6.34z" fill="#429766"/><path fill-rule="evenodd" clip-rule="evenodd" d="M31.434 25.48h2.5l-1.244-3.125-1.256 3.124zM28.2 29.091l3.66-9.051h1.683l3.66 9.051h-1.866l-.842-2.083h-3.611l-.842 2.083h-1.842zM40.124 27.433h1.293c1.903 0 3.026-1.054 3.026-2.841 0-1.787-1.123-2.841-3.026-2.841h-1.293v5.682zm-1.757 1.659v-9h3.197c1.378 0 2.513.425 3.379 1.26.866.836 1.305 1.916 1.305 3.24 0 1.324-.439 2.417-1.305 3.253-.866.835-2 1.247-3.38 1.247h-3.196zM50.143 29.143l-3.586-9.05h1.94l2.488 6.479 2.501-6.48h1.904l-3.587 9.051h-1.66z" fill="#16364E"/><path fill-rule="evenodd" clip-rule="evenodd" d="M71.557 26.734c-.698.98-1.934 1.792-3.366 1.792-1.504 0-2.686-.717-2.686-2.17 0-1.302 1.11-2.17 2.919-2.17 1.074 0 2.112.36 3.133 1.057v1.49zm-2.901-6.868c-1.163 0-2.184.302-3.043.887v.868c.913-.641 1.88-.962 2.9-.962 1.934 0 3.044.83 3.044 2.566v1.188a6.058 6.058 0 00-3.348-.98c-1.02 0-1.862.263-2.542.81-.663.529-1.003 1.246-1.003 2.133 0 .924.322 1.64.967 2.169.662.51 1.432.774 2.327.774 1.522 0 2.739-.567 3.67-1.717v1.49h.734v-5.943c0-2.189-1.486-3.283-3.706-3.283zM74.197 28.356v-.924c1.02.736 2.202 1.094 3.51 1.094 1.664 0 2.739-.698 2.739-1.773 0-2.412-5.98-1.252-5.98-4.453 0-1.49 1.2-2.434 3.294-2.434 1.253 0 2.274.283 3.08.83v.868c-.95-.604-1.952-.906-3.026-.906-1.665 0-2.525.66-2.525 1.642 0 2.54 5.98 1.078 5.98 4.471 0 .774-.34 1.396-1.02 1.868-.663.453-1.504.68-2.525.68-1.432 0-2.828-.435-3.527-.963z" fill="#429766"/><path fill-rule="evenodd" clip-rule="evenodd" d="M21.132 24.387h-2.978l-.982-2.363h4.95l-.99 2.363zm.524 1.222l-1.137 2.364h-1.012l-1.127-2.364h3.276zm-5.025 0l1.009 2.378H8.87l-1.052-2.378h8.813zM7 22.063h7.663l-.995 2.363H8.037L7 22.063z" fill="#16364E"/><path fill-rule="evenodd" clip-rule="evenodd" d="M13.65 24.431l-.451 1.182h-2.742l.469-1.181h2.724zM9.314 28h2.968l-1.22 2.713h-3.01L9.315 28zm4.208-10.302h2.181l5.535 13h-3.021l-3.556-8.626H11.66l1.862-4.374z" fill="#429766"/></svg>