<svg width="98" height="46" viewBox="0 0 98 46" fill="none" xmlns="http://www.w3.org/2000/svg"><path d="M85.793 20.88a.276.276 0 00-.269.27v2.56h-3.227v-2.56a.279.279 0 00-.27-.27h-.884c-.142 0-.254.128-.254.27v6.577c0 .146.112.272.254.272h.883c.144 0 .271-.126.271-.272v-2.733h3.227v2.733c0 .146.124.272.269.272h.886c.122 0 .248-.126.248-.272v-6.576c0-.143-.126-.27-.248-.27h-.886zm-6.847-2.936c.162 0 .287.126.287.267v.815a.28.28 0 01-.287.27h-5.495a.276.276 0 01-.269-.27v-.815c0-.14.124-.267.269-.267h5.495zm-35.613 0a.278.278 0 00-.268.267v6.782c0 1.818.575 3.025 2.847 3.025h.27c3.242 0 3.73-2.143 3.73-3.244 0-.974-.36-3.282-3.585-3.282h-1.804v-2.195h4.163a.278.278 0 00.272-.271v-.815a.277.277 0 00-.272-.267h-5.353zm3.046 4.883c1.317 0 2.055.72 2.055 1.947 0 1.226-.738 1.894-2.055 1.894h-.467c-.99 0-1.389-.415-1.389-1.534v-2.307h1.855zm20.444-1.82a.277.277 0 00-.163.234v.813c0 .07.053.163.105.197.076.037.147.053.218.037a5.606 5.606 0 011.963-.326c1.135 0 1.336.342 1.336 1.151v.148l-1.568.109c-2.525.176-2.65 1.818-2.65 2.323 0 1.495.794 2.413 2.687 2.413a3.52 3.52 0 001.835-.54l.128.271c.034.09.125.162.232.162h.526a.256.256 0 00.25-.25v-4.616c0-1.692-.9-2.505-2.776-2.505-.792 0-1.565.146-2.123.38zm.736 4.686c0-.505.092-1.029 1.134-1.117l1.568-.145.021 1.89c-.504.307-.903.47-1.515.47-.597 0-1.208-.233-1.208-1.098zm-11.633 2.144c.034.09.123.162.23.162h.634c.126 0 .25-.108.25-.25V21.15a.266.266 0 00-.27-.27h-.865a.267.267 0 00-.27.27v4.633c-.468.504-1.314.934-1.946.934-.882 0-1.316-.485-1.316-1.725v-3.842a.28.28 0 00-.27-.27h-.864a.28.28 0 00-.272.27v4.29c0 1.568.848 2.665 2.489 2.665 1.01 0 1.892-.54 2.324-.918l.146.65zm22.209 0c.034.09.127.162.236.162h.63c.127 0 .25-.108.25-.256v-6.592a.264.264 0 00-.268-.27h-.864a.265.265 0 00-.271.27v4.633c-.468.504-1.316.934-1.95.934-.879 0-1.313-.485-1.313-1.725v-3.842a.278.278 0 00-.268-.27h-.867a.276.276 0 00-.268.27v4.29c0 1.568.846 2.665 2.484 2.665 1.008 0 1.896-.54 2.326-.918l.143.65zm-18.863-2.342c-.091.953-.34 1.19-1.153 1.28a.302.302 0 00-.251.286v.721c0 .146.123.271.251.271 1.584 0 2.378-.755 2.543-2.628l.16-1.68c.108-1.169.342-1.528 1.404-1.528h1.17v5.51c0 .146.129.272.273.272h.863c.126 0 .27-.126.27-.272v-6.576c0-.143-.144-.27-.27-.27h-2.379c-1.963 0-2.537 1.135-2.7 2.74l-.181 1.874z" fill="#000"/><mask id="a" maskUnits="userSpaceOnUse" x="11" y="10" width="27" height="27"><path d="M11 23.015c0 7.188 5.826 13.016 13.015 13.016 7.186 0 13.013-5.827 13.013-13.016C37.028 15.827 31.2 10 24.015 10 16.826 10 11 15.827 11 23.015z" fill="#fff"/></mask><g mask="url(#a)"><path d="M37.028 31.383H11v-5.57h26.028v5.57zm0-16.712H11v5.571h26.028v-5.57z" fill="url(#paint0_linear)"/><path d="M37.028 14.67H11v-4.667h26.028v4.668zm0 16.711H11v4.645h26.028v-4.645zm0-11.14H11v5.57h26.028v-5.57z" fill="#323232"/><path d="M33.66 19.657a8.388 8.388 0 10-16.777 0 8.388 8.388 0 0016.776 0z" fill="url(#paint1_radial)"/></g><defs><radialGradient id="paint1_radial" cx="0" cy="0" r="1" gradientUnits="userSpaceOnUse" gradientTransform="rotate(67.196 -10.304 22.935) scale(11.5145 11.5168)"><stop stop-color="#fff" stop-opacity=".301"/><stop offset="1" stop-color="#fff" stop-opacity="0"/></radialGradient><linearGradient id="paint0_linear" x1="11" y1="23.027" x2="37.028" y2="23.027" gradientUnits="userSpaceOnUse"><stop offset=".1" stop-color="#F7A700"/><stop offset=".886" stop-color="#FEDA00"/></linearGradient></defs></svg>