<svg width="98" height="46" viewBox="0 0 98 46" fill="none" xmlns="http://www.w3.org/2000/svg"><path d="M14.37 15.11c2.111-.694 4.33-1.037 6.55-1.07.477-.04.955-.061 1.432-.01 3.065.12 6.15.763 8.885 2.185 1.34.726 2.597 1.647 3.555 2.842-1.806-1.653-4.057-2.749-6.415-3.361-4.142-1.083-8.61-.926-12.66.47-2.27.867-4.531 2.104-5.956 4.136-.957 1.297-1.432 2.984-1.11 4.58.172 1.09.727 2.07 1.383 2.94-1.45-1.024-2.626-2.516-3.034-4.268v-2.001c.379-1.589 1.376-2.977 2.649-3.978 1.387-1.13 3.022-1.922 4.721-2.465zM46.379 15.642c.405-.37.976-.488 1.506-.536 1.412-.004 2.824.001 4.236-.002 1.489.092 3.054.54 4.094 1.669.869.857 1.19 2.114 1.18 3.303-.029 1.1-.3 2.261-1.074 3.084-.984 1.145-2.527 1.638-3.997 1.683-.955-.001-1.91 0-2.865-.002.006.869.004 1.738.003 2.607-.024.652-.151 1.366-.662 1.822-.765.585-2.035.465-2.591-.353-.303-.539-.34-1.176-.347-1.781 0-3.228-.002-6.456 0-9.684.004-.63.064-1.327.517-1.81zm3.083 2.435c.001 1.265.002 2.53 0 3.794.766-.021 1.535.03 2.3-.027.606-.104 1.29-.38 1.544-.988.314-.658.262-1.503-.204-2.077-.305-.345-.754-.515-1.195-.602-.808-.143-1.63-.086-2.445-.1zM61.745 18.605c1.4-.353 3.07-.14 4.082.973.284-.333.558-.723.996-.861.643-.246 1.488-.177 1.949.385.382.545.48 1.228.476 1.88-.004 2.085-.004 4.17 0 6.257-.005.606-.064 1.252-.416 1.767-.596.809-1.947.815-2.596.068-.165-.174-.295-.378-.427-.577-.693.845-1.829 1.2-2.893 1.195-1.408.028-2.852-.52-3.774-1.608A5.644 5.644 0 0157.6 24.01c-.031-.871.23-1.718.573-2.508.744-1.381 1.994-2.587 3.573-2.898zm1.125 2.964c-.784.185-1.36.882-1.55 1.643-.127.39-.1.806-.09 1.209.056.878.569 1.783 1.428 2.089.816.333 1.83.12 2.416-.545.837-1.075.845-2.738-.006-3.806-.523-.635-1.435-.762-2.198-.59zM70.827 18.688c.45-.16.957-.124 1.402.043.401.152.621.559.811.918.725 1.767 1.47 3.524 2.192 5.292.579-1.437 1.21-2.853 1.798-4.287.245-.543.42-1.136.817-1.595.217-.199.48-.353.758-.452.674-.09 1.476.052 1.873.662.376.76.078 1.622-.3 2.316-.23.652-.617 1.233-.855 1.88-.172.426-.424.811-.587 1.24-.193.523-.504.992-.7 1.514-.2.521-.512.99-.703 1.514-.152.404-.386.77-.555 1.165-.265.688-.648 1.32-.909 2.01-.49.84-.717 1.828-1.355 2.579-.697.836-2.255.58-2.663-.421-.213-.511-.079-1.085.146-1.567.491-.98.983-1.962 1.472-2.944-.3-.684-.614-1.36-.956-2.024-.267-.745-.713-1.408-.985-2.15-.244-.559-.572-1.078-.781-1.652-.322-.782-.85-1.496-.985-2.345-.117-.73.36-1.487 1.065-1.696zM82.27 18.823c.976-.171 1.97-.124 2.958-.13 1.246.002 2.491-.004 3.736.003.683.061 1.418-.009 2.026.373.115.26.201.542.15.829-.187.601-.585 1.103-1.01 1.555-1.43 1.697-2.906 3.356-4.329 5.06 1.187-.004 2.375-.001 3.562-.002.598.026 1.248.114 1.705.537.396.416.511 1.106.213 1.609-.193.384-.604.598-1.006.698-.466.082-.938.146-1.411.131-1.922-.005-3.844.002-5.765-.003-.639-.06-1.368-.004-1.882-.46-.254-.21-.224-.571-.179-.862.08-.41.359-.738.616-1.053 1.289-1.508 2.572-3.022 3.863-4.53.253-.32.525-.627.813-.92-1.167-.122-2.352.011-3.523-.066-.425-.072-.885-.126-1.227-.413-.52-.368-.608-1.168-.3-1.697.177-.385.616-.534.99-.66z" fill="#91C350"/><path d="M15.799 18.433c1.412-.142 2.913.12 4.084.957 1.166.768 2.12 1.967 2.332 3.376.078.523.11 1.134-.274 1.552-.44.523-1.17.632-1.816.656l-5.904-.001c.112.48.3.98.698 1.296.528.414 1.199.644 1.872.62 1.298.045 2.43-.686 3.644-1.025.452-.064.993.011 1.291.396.377.448.299 1.122-.002 1.588-.37.546-.939.913-1.52 1.201-1.572.64-3.334.889-5.006.52-1.398-.287-2.689-1.098-3.526-2.257-1.494-2-1.334-5.034.319-6.894.934-1.14 2.348-1.846 3.808-1.985zm-.417 2.836c-.6.334-1.077.941-1.17 1.63 1.534-.029 3.07-.008 4.607-.012-.041-.635-.41-1.25-.976-1.552-.738-.44-1.697-.442-2.46-.066zM38.637 18.398c1.264-.023 2.571.287 3.596 1.053 1 .715 1.782 1.765 2.083 2.966.515 1.897.154 4.12-1.249 5.559-1.053 1.156-2.613 1.773-4.163 1.802-1.602.067-3.273-.424-4.45-1.542-2.184-1.94-2.355-5.628-.469-7.828 1.115-1.36 2.911-2.07 4.652-2.01zm-.615 3.049c-.711.19-1.324.766-1.526 1.478a3.581 3.581 0 00.076 2.483c.298.616.816 1.197 1.521 1.316a2.325 2.325 0 001.909-.395c.71-.575.984-1.54.934-2.426.01-.699-.307-1.36-.75-1.886-.537-.593-1.412-.713-2.164-.57z" fill="#263062"/><path d="M24.458 19.863c1.12-1.042 2.691-1.426 4.187-1.436.956.003 1.938.115 2.815.517.609.261 1.156.832 1.136 1.532.036.727-.658 1.361-1.37 1.334-.641.036-1.206-.322-1.827-.414-.726-.123-1.54-.109-2.147.364-.93.67-1.139 1.947-.935 3.01a2.343 2.343 0 001.52 1.802c.814.25 1.692.142 2.483-.14.294-.108.603-.163.91-.22.307.069.646.107.872.351.458.366.632 1.071.336 1.589-.303.573-.9.895-1.468 1.155-1.197.44-2.507.496-3.76.306-1.118-.193-2.2-.701-2.985-1.534-1.032-1.001-1.57-2.443-1.565-3.87-.06-1.613.548-3.29 1.798-4.346z" fill="#263062"/></svg>