<svg width="98" height="46" viewBox="0 0 98 46" fill="none" xmlns="http://www.w3.org/2000/svg"><path d="M15.488 16.044v7.72a.605.605 0 01-.621.619h-.933c-.044 0-.088.044-.088.088v6.485c.222 0 .444.044.71.044 4.172 0 7.546-3.353 7.546-7.5a7.51 7.51 0 00-6.614-7.456zm-.178 11.56a.935.935 0 01-.932-.927c0-.53.444-.927.932-.927.533 0 .933.441.933.927.044.485-.4.926-.932.926zm2.22 0a.935.935 0 01-.932-.927c0-.53.444-.927.932-.927.533 0 .932.441.932.927 0 .485-.4.926-.932.926zm2.22 0a.935.935 0 01-.933-.927c0-.53.444-.927.932-.927.533 0 .933.441.933.927 0 .485-.4.926-.933.926z" fill="#31AB7D"/><path d="M14.546 16C10.374 16 7 19.353 7 23.5a7.451 7.451 0 005.948 7.323v-6.75c0-.308.266-.573.577-.617H14.457c.045 0 .089-.044.089-.088V16zm-1.465 6.176a.935.935 0 01-.932-.926c0-.53.444-.927.932-.927.533 0 .932.442.932.927 0 .485-.4.926-.932.926zM90.095 20.102v2.823h-3.817v-2.823h-1.909v7.5h1.909v-3.044h3.817v3.044h1.865v-7.5h-1.865zM58.676 20.94a1.719 1.719 0 00-1.554-1.015c-.621 0-1.243.353-1.553 1.015l-3.063 6.662h1.997l.666-1.589h3.906l.666 1.589h1.998l-3.063-6.662zm-2.885 3.573l1.154-2.735c.044-.088.088-.088.133-.088.044 0 .133 0 .133.088l1.154 2.736h-2.574zM36.206 18.735c-.887 0-1.465.485-1.864 1.412l-2.441 5.647-2.442-5.647c-.4-.927-.976-1.412-1.864-1.412-.843 0-1.687.573-1.687 1.853v6.97h1.864v-6.75l2.486 5.603c.311.794.888 1.28 1.643 1.28.799 0 1.331-.486 1.642-1.28l2.486-5.603v6.794h1.864v-6.97c0-1.28-.843-1.897-1.687-1.897zM41.23 26.014c-.09 0-.178-.089-.178-.177v-1.323h4.705V22.97h-4.705v-1.147c0-.089.089-.177.177-.177h4.661v-1.588h-5.593c-.666 0-1.11.53-1.11 1.103v5.25c0 .573.489 1.103 1.11 1.103h5.593v-1.589h-4.66v.089zM49.04 27.602v-5.735c0-.088.089-.177.178-.177h4.66v-1.588h-5.593c-.665 0-1.11.53-1.11 1.103v6.353h1.865v.044zM83.128 23.851c0-2.602-1.154-3.838-3.995-3.838h-.665c-2.841 0-3.995 1.235-3.995 3.838 0 2.56 1.154 3.838 3.995 3.838h.621c2.885-.044 4.04-1.279 4.04-3.838zm-4.039 2.25h-.621c-1.554 0-2.175-.706-2.175-2.25 0-1.5.532-2.25 2.175-2.25h.621c1.598 0 2.175.75 2.175 2.25 0 1.544-.577 2.25-2.175 2.25zM69.236 18.913h-3.728c-2.797 0-3.906 1.412-3.906 3.838 0 .397.044.75.088 1.059.311 1.72 1.332 2.78 3.95 2.78h.844v.97h1.865v-.97h.799c2.618 0 3.64-1.06 3.95-2.78.045-.309.089-.662.089-1.059-.044-2.426-1.198-3.838-3.95-3.838zm-2.84 6.132h-.844c-1.287 0-1.731-.485-1.997-1.235-.09-.265-.09-.662-.09-1.059 0-1.588.755-2.25 1.82-2.25h1.155v4.544h-.044zm4.793-1.191c-.266.75-.754 1.235-1.997 1.235h-.843v-4.588h1.154c1.065 0 1.82.662 1.82 2.25-.045.441-.045.794-.133 1.103z" fill="#31AB7D"/></svg>