<svg width="98" height="46" viewBox="0 0 98 46" fill="none" xmlns="http://www.w3.org/2000/svg"><path d="M32 34.5v-21c0-1.925 1.543-3.5 3.429-3.5H64.57C66.457 10 68 11.575 68 13.5v14.262c0 .963-.343 1.838-1.029 2.45l-6.6 6.738c-.685.7-1.542 1.05-2.4 1.05H35.43C33.543 38 32 36.425 32 34.5z" fill="#ABBABA"/><path d="M31 33.5v-21c0-1.925 1.543-3.5 3.429-3.5H63.57C65.457 9 67 10.575 67 12.5v14.262c0 .963-.343 1.838-1.029 2.45l-6.6 6.738c-.685.7-1.542 1.05-2.4 1.05H34.43C32.543 37 31 35.425 31 33.5z" fill="#E3E8E8"/><path d="M37 30.2V15.8c0-.99.788-1.8 1.75-1.8h10.5c.962 0 1.75.81 1.75 1.8v14.4c0 .99-.788 1.8-1.75 1.8h-10.5c-.962 0-1.75-.81-1.75-1.8z" fill="#FFB800"/><path d="M44 27.5h-2.625V32h-1.75v-4.5H37v-1.8h14v1.8h-5.25V32H44v-4.5zm.875-13.5h-1.75v4.5h-1.75V14h-1.75v4.5H37v1.8h7.875V14z" fill="#FFD54F"/></svg>