<svg width="98" height="46" viewBox="0 0 98 46" fill="none" xmlns="http://www.w3.org/2000/svg"><path d="M81.725 25.781s-1.435.206-3.144.206c-2.051 0-2.462-.687-2.462-2.267v-1.993c0-1.65.342-2.337 2.462-2.337 1.504 0 2.94.207 2.94.207l.273-3.024s-1.846-.275-3.487-.275c-4.307 0-5.81 1.443-5.81 4.88V24.2c0 3.779 1.913 4.878 5.81 4.878 1.572 0 3.692-.274 3.692-.274l-.274-3.024zM60.318 19.667h3.555v9.207h3.692v-9.207h3.555l.205-3.093H60.113l.205 3.093zM52.796 27.638l1.982-4.673h.205l.41 5.91h3.555l-.82-12.3H54.71l-2.94 7.008h-.205l-3.145-7.008h-3.35l-.82 12.3h3.487l.341-5.91h.205l2.188 4.673h2.325zM38.928 13.482v19.24c0 1.306-1.094 2.405-2.393 2.405H17.393c-1.3 0-2.393-1.1-2.393-2.405v-19.24c0-1.306 1.094-2.405 2.393-2.405h19.142c1.299 0 2.393 1.1 2.393 2.405zM26.964 31.966c4.444 0 6.494-3.573 6.494-7.146 0-5.016-3.418-10.65-6.494-10.65-3.008 0-6.495 5.702-6.495 10.719 0 3.504 1.983 7.077 6.495 7.077z" fill="#E30613"/><path d="M33.456 24.82c0 3.574-2.05 7.147-6.495 7.147-4.512 0-6.494-3.573-6.494-7.077 0-5.017 3.486-10.72 6.494-10.72 3.077 0 6.495 5.635 6.495 10.65z" fill="#fff"/></svg>