<svg width="98" height="46" viewBox="0 0 98 46" fill="none" xmlns="http://www.w3.org/2000/svg"><path fill-rule="evenodd" clip-rule="evenodd" d="M12.527 24.999V31.8H10V15.052h2.864c1.402 0 2.462.098 3.178.293.723.195 1.36.564 1.909 1.106.962.94 1.442 2.126 1.442 3.558 0 1.533-.513 2.748-1.54 3.645-1.027.897-2.411 1.345-4.154 1.345h-1.172zm0-2.343h.944c2.321 0 3.482-.893 3.482-2.68 0-1.728-1.197-2.592-3.59-2.592h-.836v5.272zm19.308 5.076h-7.17L22.8 31.8h-2.722L28.364 14l7.994 17.8h-2.766l-1.757-4.068zm-1.03-2.375l-2.484-5.695-2.604 5.695h5.088zm11.031-.792l-5.467-9.513h2.907l3.83 6.693 3.839-6.693h2.907l-5.489 9.513V31.8h-2.527v-7.235z" fill="#404040"/><path fill-rule="evenodd" clip-rule="evenodd" d="M61.027 17.427h-6.715v4.024h6.52v2.376h-6.52v5.597h6.715V31.8h-9.242V15.052h9.242v2.375zM73.58 17.427h-6.715v4.024h6.52v2.376h-6.52v5.597h6.715V31.8h-9.242V15.052h9.242v2.375zM82.583 24.662l5.185 7.138h-3.091l-4.784-6.856h-.456V31.8H76.91V15.052h2.961c2.213 0 3.811.416 4.795 1.247 1.085.926 1.627 2.148 1.627 3.666 0 1.186-.34 2.206-1.02 3.06-.68.853-1.576 1.399-2.69 1.637zm-3.145-1.92h.802c2.394 0 3.59-.914 3.59-2.744 0-1.714-1.164-2.57-3.492-2.57h-.9v5.314z" fill="#3498DB"/></svg>