<svg width="98" height="46" viewBox="0 0 98 46" fill="none" xmlns="http://www.w3.org/2000/svg"><path fill-rule="evenodd" clip-rule="evenodd" d="M25 36.165c.698-.07 1.146-.225 1.343-.465.198-.24.297-.797.297-1.67v-6.731c0-.599-.096-.988-.288-1.169-.192-.18-.63-.287-1.31-.32v-.307h3.337l3.907 8.356 3.734-8.356h3.363v.308c-.626.043-1.03.155-1.211.335-.182.18-.272.565-.272 1.153v7.37c0 .604.09.99.272 1.16.18.17.585.282 1.211.336v.3h-4.731v-.3c.681-.054 1.106-.174 1.273-.36.168-.186.252-.63.252-1.33v-7.443l-4.32 9.432h-.23l-4.245-9.044v6.61c0 .905.135 1.496.404 1.771.176.178.569.3 1.179.364v.3H25v-.3zm15.249-3.454c0-1.073.347-1.98 1.042-2.722.696-.742 1.59-1.113 2.683-1.113 1.088 0 1.99.351 2.704 1.052.714.701 1.071 1.634 1.071 2.799 0 1.073-.346 2.006-1.038 2.799-.692.793-1.588 1.19-2.687 1.19-1.055 0-1.948-.381-2.679-1.142-.73-.76-1.096-1.715-1.096-2.863zm3.494-3.35c-.434 0-.81.141-1.129.421-.55.491-.824 1.338-.824 2.54 0 .96.221 1.856.664 2.686.442.83 1.056 1.246 1.842 1.246.615 0 1.09-.278 1.422-.833.332-.556.498-1.284.498-2.184 0-.933-.211-1.812-.634-2.638-.424-.825-1.036-1.237-1.839-1.237zm4.822 6.877c.39-.049.664-.145.82-.287.157-.143.236-.463.236-.959v-4.101c0-.345-.034-.588-.1-.728-.104-.205-.318-.308-.642-.308-.05 0-.1.003-.153.008a5.227 5.227 0 00-.194.025v-.284c.226-.064.759-.231 1.6-.501l.774-.25c.039 0 .062.013.07.04a.407.407 0 01.013.113v1.189c.505-.464.9-.782 1.187-.954a2.51 2.51 0 011.335-.397c.374 0 .714.105 1.022.316.593.41.89 1.14.89 2.192v3.777c0 .389.08.67.24.842.159.172.425.261.799.267v.226h-3.52v-.226c.401-.054.682-.163.841-.328.16-.164.239-.522.239-1.072v-3.454c0-.464-.088-.848-.264-1.153-.176-.304-.5-.457-.972-.457-.325 0-.654.108-.99.324a5.646 5.646 0 00-.725.615v4.53c0 .388.088.648.264.78.176.133.453.204.832.215v.226h-3.602v-.226zm12.002-7.362c.774 0 1.453.263 2.035.79.583.525.874 1.27.874 2.236h-5.234c.055 1.251.344 2.162.866 2.734.522.572 1.14.858 1.854.858.577 0 1.063-.149 1.46-.445.395-.297.76-.718 1.095-1.262l.289.097c-.225.685-.647 1.318-1.265 1.9-.618.583-1.375.874-2.271.874-1.033 0-1.831-.383-2.395-1.148-.563-.766-.844-1.648-.844-2.645 0-1.085.327-2.02.98-2.808.654-.787 1.506-1.18 2.556-1.18zm-.478.591c-.627 0-1.105.272-1.435.817-.176.291-.302.658-.379 1.1h3.479c-.061-.54-.165-.94-.314-1.205-.269-.475-.72-.712-1.351-.712zm4.335-.437h3.478v.25c-.274.006-.478.03-.61.074-.252.07-.379.207-.379.412 0 .076.014.153.041.23.028.079.078.196.149.353l1.929 4.198 1.55-4.23c.016-.044.042-.14.078-.292.035-.15.053-.253.053-.307 0-.14-.05-.243-.148-.308a.784.784 0 00-.38-.113l-.255-.016v-.25h2.267v.25c-.225.027-.395.102-.507.226-.113.124-.21.297-.293.518l-2.596 6.747c-.45 1.165-.882 2.009-1.294 2.532-.412.523-.934.784-1.566.784-.308 0-.597-.075-.866-.226-.269-.151-.404-.391-.404-.72 0-.216.081-.393.243-.53a.916.916 0 01.615-.206c.142 0 .355.051.638.153.283.103.485.154.606.154.308 0 .632-.35.973-1.052.34-.7.51-1.17.51-1.407a.799.799 0 00-.024-.178 1.261 1.261 0 00-.058-.186l-2.637-5.598c-.187-.399-.35-.662-.49-.789-.14-.126-.348-.209-.623-.246v-.227zM32.03 12.357c0-1.014-.444-1.71-1.334-2.087-.479-.205-1.083-.307-1.814-.307-.346 0-.559.033-.639.1-.08.068-.12.218-.12.45v4.32c.303.026.501.043.594.048.094.005.184.008.272.008.775 0 1.385-.108 1.83-.323.808-.394 1.212-1.13 1.212-2.209zM25 20.01c.643-.06 1.044-.185 1.203-.377.16-.191.24-.63.24-1.314v-7.175c0-.577-.09-.958-.268-1.14-.179-.184-.57-.3-1.175-.349v-.307h4.451c1.429 0 2.522.272 3.28.817.759.545 1.138 1.262 1.138 2.152 0 1.127-.42 1.944-1.261 2.45-.84.508-1.893.761-3.157.761-.181 0-.413-.004-.697-.012a24.245 24.245 0 00-.63-.012v3.01c0 .625.098 1.018.293 1.18.195.162.63.267 1.306.316v.299H25v-.3zm12.982-7.289c.775 0 1.453.263 2.036.789.582.526.874 1.271.874 2.236h-5.234c.055 1.252.343 2.163.865 2.735.522.571 1.14.857 1.855.857.577 0 1.063-.148 1.459-.445.395-.296.76-.717 1.096-1.262l.288.097c-.225.685-.647 1.319-1.265 1.901-.618.583-1.375.874-2.27.874-1.034 0-1.832-.383-2.395-1.149-.563-.765-.845-1.647-.845-2.645 0-1.084.327-2.02.98-2.807.655-.787 1.506-1.18 2.556-1.18zm-.478.59c-.627 0-1.105.273-1.434.818-.176.29-.303.658-.38 1.1h3.479c-.06-.54-.165-.941-.313-1.205-.27-.475-.72-.712-1.352-.712zm4.179 6.731c.505-.043.84-.13 1.005-.263.165-.132.248-.414.248-.845v-3.649c0-.533-.051-.915-.153-1.144-.101-.23-.287-.344-.556-.344-.055 0-.128.007-.218.02-.091.014-.186.031-.285.053v-.267l.965-.332c.33-.113.557-.194.684-.243.274-.102.557-.218.849-.347.038 0 .061.013.07.04a.727.727 0 01.012.17v1.327c.352-.48.691-.855 1.018-1.125.327-.27.666-.404 1.018-.404.28 0 .508.082.684.246.176.165.264.371.264.62a.809.809 0 01-.202.558.65.65 0 01-.507.226c-.209 0-.419-.094-.63-.283-.212-.189-.378-.283-.5-.283-.192 0-.428.152-.708.457-.28.304-.42.619-.42.942v3.648c0 .464.11.787.33.967.219.18.584.266 1.095.255v.267h-4.063v-.267zm5.877.04c.582-.027.966-.133 1.15-.32.184-.185.276-.578.276-1.176v-5.193h-1.41v-.543h1.41c0-.851.118-1.572.354-2.16C49.79 9.565 50.618 9 51.821 9c.484 0 .916.094 1.298.283.382.189.573.442.573.76a.678.678 0 01-.197.478.633.633 0 01-.479.21.63.63 0 01-.412-.141c-.115-.095-.252-.26-.412-.498l-.14-.21a1.191 1.191 0 00-.272-.287c-.104-.079-.25-.118-.437-.118-.418 0-.7.203-.849.607-.082.216-.123.499-.123.85v1.917h2.068v.541h-2.052v5.194c0 .61.084.999.251 1.169.168.17.606.279 1.315.328v.226H47.56v-.227zm9.157-7.36c.775 0 1.454.262 2.036.788.583.526.874 1.271.874 2.236h-5.234c.055 1.252.343 2.163.865 2.735.522.571 1.14.857 1.855.857.577 0 1.063-.148 1.459-.445.395-.296.76-.717 1.096-1.262l.289.097c-.226.685-.647 1.319-1.266 1.901-.618.583-1.375.874-2.27.874-1.033 0-1.832-.383-2.395-1.149-.563-.765-.845-1.647-.845-2.645 0-1.084.327-2.02.981-2.807.654-.787 1.506-1.18 2.555-1.18zm-.478.59c-.626 0-1.104.272-1.434.817-.176.29-.302.658-.38 1.1h3.48c-.061-.54-.166-.941-.314-1.205-.27-.475-.72-.712-1.352-.712zm8.3-.631c.687 0 1.28.174 1.777.521.497.348.746.73.746 1.145a.768.768 0 01-.19.498c-.126.153-.321.23-.585.23a.74.74 0 01-.507-.194c-.146-.13-.251-.318-.317-.566l-.1-.389c-.07-.285-.194-.488-.37-.606-.181-.114-.42-.17-.717-.17-.627 0-1.156.268-1.587.805-.431.536-.647 1.25-.647 2.14 0 .814.238 1.545.713 2.192.475.647 1.117.97 1.925.97.571 0 1.08-.183 1.524-.55.253-.21.539-.544.858-1.003l.23.138c-.313.647-.642 1.16-.989 1.537-.665.722-1.434 1.084-2.307 1.084-.858 0-1.616-.332-2.276-.995-.659-.664-.989-1.564-.989-2.702 0-1.116.36-2.076 1.08-2.88.72-.804 1.63-1.205 2.729-1.205zm7.592.17v.582h-1.682l-.016 4.66c0 .41.036.72.107.93.132.372.39.558.775.558.198 0 .37-.046.515-.138.146-.091.312-.237.499-.436l.214.177-.181.243c-.286.378-.588.645-.907.801a2.092 2.092 0 01-.923.235c-.649 0-1.088-.284-1.319-.85-.126-.307-.19-.733-.19-1.278v-4.902h-.898a.243.243 0 01-.062-.049.097.097 0 01-.02-.064.19.19 0 01.037-.126c.024-.03.103-.098.234-.206.38-.307.653-.557.82-.748.168-.192.563-.697 1.183-1.517.072 0 .115.005.128.016.014.011.02.051.02.122v1.99h1.666z" fill="#CD1F33"/></svg>