<svg width="98" height="46" viewBox="0 0 98 46" fill="none" xmlns="http://www.w3.org/2000/svg"><g clip-path="url(#clip0)"><path d="M29.163 34.206c2.44 0 5.087.84 8.018 3.448.294.261.683-.064.429-.388-2.88-3.65-5.543-4.348-8.2-4.933-3.248-.72-4.92-2.557-6.083-4.57-.23-.403-.337-.33-.358.185-.027.631.019 1.466.159 2.286-.13.005-.262.005-.395.005-4.647 0-8.417-3.783-8.417-8.452 0-4.667 3.767-8.453 8.417-8.453 4.647 0 8.418 3.783 8.418 8.453 0 .332-.016.66-.053.981-.615-.111-1.826-.122-2.674-.05-.32.026-.275.178-.032.22 2.782.506 4.695 2.236 5.132 5.378.011.072.104.093.14.032a12.77 12.77 0 001.802-6.564C35.464 14.723 29.762 9 22.731 9 15.699 9 10 14.723 10 21.784c0 7.061 5.699 12.787 12.73 12.787 1.868 0 3.718-.365 6.433-.365zm.949-4.643c.567.482.74 1.054.44 1.456-.167.22-.438.343-.76.343-.319 0-.642-.117-.867-.314-.514-.452-.665-1.184-.331-1.602.132-.162.344-.252.601-.252.31 0 .636.133.917.37zm2.612-1.22c.082.56-.092.792-.27.792-.193 0-.434-.226-.72-.676-.284-.441-.388-.95-.247-1.208.093-.17.286-.244.53-.151.471.183.66.91.707 1.242zm17.648-2.927l-1.468-1.772a.286.286 0 01.22-.468h3.071c.146-.437.228-.905.228-1.39 0-2.22-1.645-4.134-3.905-4.134s-3.906 1.916-3.906 4.135c0 2.221 1.646 4.108 3.906 4.108.686 0 1.311-.176 1.854-.48zm6.642 2.995c.16.179.03.463-.212.463h-3.351a.463.463 0 01-.353-.165l-.566-.686a7.337 7.337 0 01-4.012 1.192c-4.08 0-7.397-3.331-7.397-7.428 0-4.098 3.317-7.429 7.397-7.429s7.397 3.334 7.397 7.429a7.385 7.385 0 01-1.176 4.01l2.273 2.614zM87.97 14.7h-2.734a.363.363 0 00-.363.364v13.444c0 .202.164.365.363.365h2.734a.363.363 0 00.363-.365V15.063a.363.363 0 00-.363-.364zm-4.602 0h-3.06a.362.362 0 00-.347.255L77.54 22.9l-2.66-7.953a.362.362 0 00-.345-.247H72.4a.363.363 0 00-.345.247l-2.66 7.953-2.421-7.945a.365.365 0 00-.348-.255h-3.06a.358.358 0 00-.294.152.36.36 0 00-.05.327l4.493 13.449c.05.149.188.247.345.247h2.43a.363.363 0 00.344-.247l2.636-7.86 2.636 7.86c.05.146.188.247.345.247h2.43a.363.363 0 00.344-.247l4.493-13.45a.36.36 0 00-.05-.326.375.375 0 00-.3-.152zm-21.31.364v13.444a.364.364 0 01-.362.365h-2.734a.363.363 0 01-.363-.365V15.063c0-.202.161-.364.363-.364h2.734c.201 0 .363.162.363.364z" fill="#F68C1F"/></g><defs><clipPath id="clip0"><path fill="#fff" transform="translate(10 9)" d="M0 0h78.333v28.75H0z"/></clipPath></defs></svg>