<svg width="98" height="46" viewBox="0 0 98 46" fill="none" xmlns="http://www.w3.org/2000/svg"><path d="M17 19.452v3.464l9.542-1.028v-3.75L17 19.452zm3.045 3.675V35h3.493V22.777l-3.493.35zm7.786-5.166V35h3.68V17.454l-3.68.507zm4.367-.602v3.92l5.315-.573v-4.078l-5.315.731zm0 6.837v3.992L35.687 28v-4.099l-3.49.294zm0 6.868V35h5.315v-4.093l-5.315.157zM51.26 14.73V35h4.825V14.065l-4.825.664zm5.726-.788v4.662l7.033-.757v-4.874l-7.033.969zm0 8.17v4.748l4.61-.246v-4.89l-4.61.387zm0 8.22V35h7.033v-4.878l-7.033.208zM38.92 16.433V35h4.193V15.856l-4.194.578zm4.975 14.285v4.28h6.087v-4.46l-6.087.18zm35.89-17.976c-1.525-1.411-3.761-1.99-6.207-1.646v5.171c.99-.053 1.793.307 2.15 1.031.565 1.143-.017 2.858-1.392 4.447-2.12 2.452-7.761 7.47-7.761 7.47l8.097-.26c4.947-4.735 6.724-7.609 7.043-11.196a6.064 6.064 0 00-1.93-5.017zM82 35v-5.411l-16.423.484L82 35zm-16.423-4.927L65.579 35H82l-16.423-4.927zm7.057-18.86c-4.771.995-7.114 4.434-6.844 10.044l5.087-.443c-.231-3.169.758-3.92 1.76-4.334l-.003-5.267z" fill="#000"/></svg>