<svg width="98" height="46" viewBox="0 0 98 46" fill="none" xmlns="http://www.w3.org/2000/svg"><path d="M57 29v13H35a2 2 0 01-2-2V29h24z" fill="#D5DDDD"/><path d="M42 34v1a1 1 0 01-1 1h-4a1 1 0 01-1-1v-1a1 1 0 011-1h4a1 1 0 011 1z" fill="#8FA3A3"/><path d="M64.817 7.521l-1.33-2.088L57.002 29v13h2V29.5l5.935-21.172a1 1 0 00-.12-.807z" fill="#ABBABA"/><path d="M48.5 34h5a.5.5 0 010 1h-5a.5.5 0 010-1z" fill="#8FA3A3"/><path d="M63.627 6.28L57 29H33l6.79-23.28a1 1 0 01.96-.72h21.917a1 1 0 01.96 1.28z" fill="#E3E8E8"/><path d="M59.604 9.293l-3.678 12a1 1 0 01-.956.707H39.352a1 1 0 01-.956-1.293l3.678-12A1 1 0 0143.03 8h15.618a1 1 0 01.956 1.293z" fill="#71BBDB"/><path d="M59.389 10l-3.575 11.302a1 1 0 01-.953.698H40l3.574-11.302A1 1 0 0144.53 10h14.86z" fill="#92CBE4"/><path d="M63.674 26.502L61 22.407 59 29.5V42h3a2 2 0 002-2V27.595a2 2 0 00-.326-1.093z" fill="#8FA3A3"/></svg>