<svg width="98" height="46" viewBox="0 0 98 46" fill="none" xmlns="http://www.w3.org/2000/svg"><path d="M62.21 30.283h-3.687l2.306-14.257h3.686L62.21 30.283zM75.578 16.374a9.085 9.085 0 00-3.307-.607c-3.64 0-6.204 1.942-6.22 4.717-.03 2.048 1.836 3.185 3.231 3.868 1.427.698 1.912 1.153 1.912 1.775-.015.955-1.153 1.395-2.214 1.395-1.472 0-2.26-.227-3.46-.758l-.485-.228-.516 3.2c.865.394 2.458.744 4.112.76 3.868 0 6.386-1.912 6.416-4.87.015-1.623-.97-2.866-3.094-3.882-1.29-.653-2.08-1.093-2.08-1.76.016-.607.668-1.228 2.124-1.228a6.264 6.264 0 012.746.546l.333.15.502-3.078zM80.477 25.232l1.472-3.989c-.016.03.303-.834.485-1.365l.257 1.229s.698 3.412.85 4.125h-3.064zm4.55-9.206h-2.851c-.88 0-1.547.258-1.927 1.183l-5.476 13.074h3.868l.774-2.139h4.733c.106.5.44 2.139.44 2.139h3.413l-2.974-14.257zM55.447 16.026l-3.61 9.722-.395-1.972c-.667-2.275-2.76-4.747-5.096-5.976l3.307 12.468h3.898l5.794-14.242h-3.898z" fill="#00579F"/><path d="M48.484 16.026h-5.931l-.06.288c4.626 1.183 7.69 4.035 8.949 7.463l-1.29-6.553c-.212-.91-.864-1.168-1.668-1.198z" fill="#FAA61A"/><path d="M36.383 33.452v.057h.052a.055.055 0 00.029-.007.025.025 0 00.01-.022.024.024 0 00-.01-.02.05.05 0 00-.029-.008h-.052zm.053-.04c.026 0 .047.007.062.019a.06.06 0 01.022.05.057.057 0 01-.017.043.086.086 0 01-.05.02l.069.08h-.054l-.064-.079h-.021v.08h-.045v-.212h.098zm-.014.285a.18.18 0 00.163-.109.182.182 0 000-.138.182.182 0 00-.094-.094.183.183 0 00-.138 0 .173.173 0 00-.095.094.17.17 0 00-.014.07.17.17 0 00.014.069.167.167 0 00.094.094c.022.01.045.014.07.014zm0-.406a.228.228 0 01.164.067.222.222 0 01.068.161.218.218 0 01-.019.089.235.235 0 01-.122.121.232.232 0 01-.324-.21.224.224 0 01.142-.21.232.232 0 01.09-.018zm-21.405-.814c0-.404.264-.735.696-.735.413 0 .691.317.691.735 0 .417-.278.734-.69.734-.433 0-.697-.331-.697-.734zm1.858 0V31.33h-.5v.278c-.157-.207-.397-.336-.724-.336-.643 0-1.147.504-1.147 1.205 0 .7.504 1.204 1.147 1.204.327 0 .567-.13.725-.336v.279h.499v-1.147zm16.857 0c0-.404.264-.735.696-.735.413 0 .691.317.691.735 0 .417-.278.734-.69.734-.433 0-.697-.331-.697-.734zm1.858 0v-2.069h-.5v1.2c-.158-.207-.398-.336-.724-.336-.643 0-1.148.504-1.148 1.205 0 .7.505 1.204 1.148 1.204.326 0 .566-.13.725-.336v.279h.5v-1.147zm-12.523-.759c.321 0 .528.202.58.557h-1.19c.053-.331.254-.557.61-.557zm.01-.446c-.673 0-1.143.49-1.143 1.205 0 .73.49 1.204 1.176 1.204.346 0 .662-.086.94-.321l-.244-.37c-.192.154-.437.24-.667.24-.322 0-.614-.148-.686-.562h1.703c.005-.062.01-.124.01-.191-.005-.716-.447-1.205-1.09-1.205zm6.023 1.205c0-.404.264-.735.696-.735.413 0 .691.317.691.735 0 .417-.278.734-.69.734-.433 0-.697-.331-.697-.734zm1.858 0V31.33h-.5v.278c-.158-.207-.397-.336-.724-.336-.643 0-1.148.504-1.148 1.205 0 .7.505 1.204 1.148 1.204.326 0 .566-.13.725-.336v.279h.499v-1.147zm-4.675 0c0 .696.484 1.204 1.224 1.204.345 0 .576-.076.825-.273l-.24-.404a1.008 1.008 0 01-.6.207c-.398-.005-.691-.293-.691-.734 0-.442.293-.73.691-.735.217 0 .413.072.6.207l.24-.404c-.25-.196-.48-.273-.825-.273-.74 0-1.224.509-1.224 1.205zm6.432-1.205a.677.677 0 00-.605.336v-.279h-.495v2.295h.5v-1.286c0-.38.163-.591.49-.591.1 0 .206.014.311.058l.154-.47a1.062 1.062 0 00-.355-.063zm-13.373.24c-.24-.158-.57-.24-.936-.24-.58 0-.955.278-.955.734 0 .374.279.605.792.677l.235.034c.274.038.403.11.403.24 0 .177-.182.278-.523.278-.346 0-.595-.11-.763-.24l-.235.389c.273.201.619.297.993.297.663 0 1.047-.312 1.047-.748 0-.404-.302-.615-.802-.687l-.235-.034c-.216-.028-.389-.071-.389-.225 0-.168.163-.269.437-.269.293 0 .576.11.715.197l.216-.403zm6.437-.24a.676.676 0 00-.605.336v-.279h-.494v2.295h.499v-1.286c0-.38.163-.591.49-.591.1 0 .206.014.311.058l.154-.47a1.062 1.062 0 00-.355-.063zm-4.258.058h-.815v-.697H20.2v.697h-.465v.456h.465v1.046c0 .532.207.85.797.85.216 0 .466-.068.624-.178l-.144-.427a.923.923 0 01-.442.13c-.25 0-.33-.155-.33-.385v-1.037h.815v-.456zm-7.459 2.294v-1.44c0-.542-.345-.907-.902-.912-.293-.005-.595.086-.807.408-.158-.254-.407-.408-.758-.408-.245 0-.484.072-.672.34v-.282h-.5v2.294h.505v-1.272c0-.398.22-.61.562-.61.33 0 .498.216.498.605v1.277h.505v-1.272c0-.398.23-.61.561-.61.34 0 .504.216.504.605v1.277h.504z" fill="#231F20"/><path d="M36.69 25.994v-.335h-.087l-.1.23-.101-.23h-.088v.335h.062v-.253l.095.218h.064l.094-.218v.253h.062zm-.553 0v-.278h.112v-.057h-.286v.057h.112v.278h.061z" fill="#F79410"/><path d="M26.76 27.436H19.2V13.848h7.56v13.588z" fill="#FF5F00"/><path d="M19.68 20.641a8.627 8.627 0 013.3-6.793A8.64 8.64 0 009 20.642a8.64 8.64 0 0013.98 6.793 8.627 8.627 0 01-3.3-6.794z" fill="#EB001B"/><path d="M36.95 20.641a8.64 8.64 0 01-13.981 6.794 8.625 8.625 0 003.3-6.794 8.625 8.625 0 00-3.3-6.793 8.64 8.64 0 0113.98 6.794z" fill="#F79E1B"/></svg>