<svg width="98" height="46" viewBox="0 0 98 46" fill="none" xmlns="http://www.w3.org/2000/svg"><path d="M19.333 12c1.777 0 3.468.407 4.984 1.135.238.108.478.236.715.365l-1.04.921-1.56-1.607-2.686 2.357-1.583-1.693-4.94 4.392 3.163 3.449-1.235 1.07 3.12 3.45-1.234 1.07 4.464 4.906 2.642-2.4 2.298 2.572c-.455.343-.954.686-1.495.986a11.427 11.427 0 01-5.591 1.455C13.092 34.428 8 29.395 8 23.205 7.978 17.054 13.07 12 19.333 12zm-2.08 10.518l2.708-2.399 2.428 2.678-2.71 2.399-2.426-2.678zm1.929 4.628l2.687-2.42 2.448 2.677-2.709 2.4-2.426-2.657zm-3.857-9.19l2.708-2.4 2.427 2.678-2.709 2.4-2.426-2.678zm4.962-1.286l2.015-1.8 1.82 1.993-2.015 1.82-1.82-2.013zm3.597 8.247l2.015-1.799 1.82 2.013-2.015 1.8-1.82-2.014zm1.777 4.05l2.015-1.8 1.82 1.992-2.015 1.82-1.82-2.012zm.823-9.255l1.344-1.2 1.213 1.329-1.343 1.2-1.214-1.33zm-1.733-3.963l1.343-1.221 1.214 1.35-1.344 1.199-1.213-1.328zm3.445 7.926l1.343-1.2 1.236 1.329-1.365 1.2-1.214-1.329zm-6.046-2.977l2.016-1.8 1.82 1.992-2.015 1.8-1.82-1.992z" fill="#036CB5"/><mask id="a" maskUnits="userSpaceOnUse" x="31" y="17" width="11" height="10"><path d="M31.756 17.7v8.712h9.965V17.7h-9.965z" fill="#fff"/></mask><g mask="url(#a)"><path d="M36.17 17.7h1.088l1.7 6.5h.085l1.248-6.5h1.43l-1.981 8.712h-1.32l-1.663-6.133h-.086l-1.614 6.133h-1.32L31.756 17.7h1.37l1.369 6.5h.085l1.59-6.5z" fill="#036CB5"/></g><path d="M43.458 22.703h2.8c-.061-1.29-.685-1.805-1.345-1.805-.746 0-1.321.577-1.455 1.805zm3.777 2.31v.935c-.55.32-1.283.565-2.164.565-2.053 0-2.897-1.278-2.897-3.22 0-1.868.941-3.22 2.775-3.22 1.528 0 2.47.997 2.47 3v.454h-3.986c0 1.474.599 2.125 1.859 2.125.66 0 1.271-.233 1.943-.638zM50.265 25.528c.392.172.82.197 1.126.197.905 0 1.589-.566 1.589-2.556 0-1.56-.563-2.064-1.382-2.064-.49 0-.843.135-1.333.405v4.018zm.013-4.927c.366-.196.99-.455 1.65-.455 1.516 0 2.336 1.057 2.336 3.023 0 2.298-1.101 3.416-2.873 3.416-.648 0-1.651-.209-2.385-.603v-8.576l1.272-.307v3.502zM60.034 26.407h-.782l-2.495-6.169h-.11v6.17h-1.1v-8.714h1.48l2.738 6.87h.062l2.616-6.87h1.517v8.713h-1.32v-6.316h-.111l-2.495 6.316zM69.356 23.294c0-1.66-.672-2.36-1.504-2.36-.807 0-1.504.7-1.504 2.36 0 1.683.636 2.358 1.504 2.358s1.504-.675 1.504-2.358zm-4.291 0c0-2.152 1.174-3.22 2.787-3.22 1.615 0 2.788 1.068 2.788 3.22 0 2.1-1.112 3.22-2.788 3.22-1.675 0-2.788-1.12-2.788-3.22zM71.607 20.984c.55-.333 1.713-.91 3.118-.91 1.468 0 2.017.577 2.017 1.843v4.449h-1.27V22.2c0-.97-.477-1.143-1.101-1.143-.489 0-1.113.222-1.492.443v4.866h-1.272v-5.382zM79.432 22.703h2.8c-.06-1.29-.685-1.805-1.345-1.805-.746 0-1.32.577-1.455 1.805zm3.778 2.31v.935c-.55.32-1.284.565-2.164.565-2.053 0-2.898-1.278-2.898-3.22 0-1.868.941-3.22 2.776-3.22 1.529 0 2.47.997 2.47 3v.454h-3.986c0 1.474.6 2.125 1.858 2.125.66 0 1.272-.233 1.944-.638zM88.472 20.074h1.309l-2.213 6.143c-.612 1.696-1.358 2.58-2.763 2.58v-1.006c.832 0 1.344-.664 1.638-1.574l-2.347-6.143h1.345l1.565 4.522h.073l1.393-4.522z" fill="#036CB5"/></svg>