<svg width="98" height="46" viewBox="0 0 98 46" fill="none" xmlns="http://www.w3.org/2000/svg"><path d="M19.064 14.343H18.01c-1.592 0-3.135 1.027-3.135 4.002 0 2.878 1.413 3.804 3.135 3.804h1.054v-7.806zm-1.643 9.407l-3.135 6.857H12l3.443-7.33c-1.62-.802-2.697-2.254-2.697-4.93 0-3.753 2.44-5.63 5.343-5.63h2.955v17.89h-1.977V23.75H17.42z" fill="red"/><path d="M59.477 24.3c0-3.953 1.569-6.48 4.598-6.48 1.155 0 1.824.3 2.39.65l-.284 1.852c-.54-.451-1.309-.877-2.132-.877-1.437 0-2.466 1.576-2.466 4.754 0 3.153.772 4.953 2.39 4.953.977 0 1.72-.375 2.183-.776l.463 1.45c-.695.576-1.515.952-2.698.952-2.773.004-4.444-2.172-4.444-6.477zm-5.856.026v6.28h-2.003V17.998h2.003v5.83l3.11-5.83h2.028l-3.212 5.93 3.675 6.68h-2.185l-3.416-6.281zm-9.43-1.175h3.315c0-2.151-.36-3.729-1.515-3.729-1.234 0-1.671 1.476-1.8 3.73zm2.21 7.631c-2.672 0-4.316-2.076-4.316-5.953 0-4.055 1.157-7.007 3.906-7.007 2.158 0 3.572 1.575 3.572 5.855v1.077h-5.395c0 2.852.823 4.352 2.415 4.352 1.13 0 2.029-.5 2.543-.85l.463 1.5c-.823.625-1.903 1.026-3.188 1.026zm-8.528-11.21h-2.235v.226c0 2.652-.129 6.529-1.209 9.206h3.444v-9.431zm3.004 13.512h-1.798v-2.477h-5.55v2.477h-1.797v-4.08h.797c1.18-2.677 1.31-6.579 1.31-9.932v-1.077h6.011v11.01h1.029v4.079h-.002zM30.575 17.997v12.61h-1.978v-5.655h-2.98v5.655h-2.004v-12.61h2.004v5.355h2.98v-5.355h1.978z" fill="#000"/><path d="M70.906 21.23c0-1.046.09-1.708 2.312-3.323C75.058 16.57 80.953 12 80.953 12v7.629h4.485v10.977h-13.13c-.77 0-1.402-.613-1.402-1.364v-8.013z" fill="#FFCF01"/><path d="M80.953 19.629v4.42l-8.238 5.464 10.417-3.301v-6.583h-2.179z" fill="#D3AB07"/><path d="M77.189 19.4c.482-.56 1.184-.758 1.572-.441.386.315.309 1.024-.173 1.584-.482.559-1.185.755-1.573.44-.386-.315-.309-1.025.174-1.584z" fill="#231F20"/></svg>