<svg width="42" height="16" viewBox="0 0 42 16" fill="none" xmlns="http://www.w3.org/2000/svg">
<path d="M34 0H8C3.58172 0 0 3.58172 0 8C0 12.4183 3.58172 16 8 16H34C38.4183 16 42 12.4183 42 8C42 3.58172 38.4183 0 34 0Z" fill="url(#paint0_linear)"/>
<path d="M9.55664 11H8.49707V6.88477H7.14014V6.00293H10.9136V6.88477H9.55664V11ZM15.6235 6.00293L14.0786 9.53711C13.8849 9.98145 13.7026 10.3005 13.5317 10.4941C13.3631 10.6878 13.1626 10.8325 12.9302 10.9282C12.6978 11.0216 12.4152 11.0684 12.0825 11.0684C11.7977 11.0684 11.5322 11.0342 11.2861 10.9658V10.0566C11.4867 10.1387 11.7362 10.1797 12.0347 10.1797C12.2238 10.1797 12.3765 10.1364 12.4927 10.0498C12.6089 9.96094 12.7057 9.80827 12.7832 9.5918L11.0537 6.00293H12.1748L13.4053 8.78857H13.4395L13.501 8.61768L14.5332 6.00293H15.6235ZM17.3154 8.35449H17.6641C17.9899 8.35449 18.2337 8.29069 18.3955 8.16309C18.5573 8.0332 18.6382 7.84521 18.6382 7.59912C18.6382 7.35075 18.5698 7.16732 18.4331 7.04883C18.2987 6.93034 18.0868 6.87109 17.7974 6.87109H17.3154V8.35449ZM19.708 7.56152C19.708 8.09928 19.5394 8.51058 19.2021 8.79541C18.8672 9.08024 18.3898 9.22266 17.77 9.22266H17.3154V11H16.2559V6.00293H17.8521C18.4582 6.00293 18.9185 6.13395 19.2329 6.396C19.5496 6.65576 19.708 7.04427 19.708 7.56152ZM24.7461 11H23.6899V8.84326H21.7109V11H20.6514V6.00293H21.7109V7.96143H23.6899V6.00293H24.7461V11ZM26.0107 6.00293H26.9644V8.41602L26.9507 9.06201L26.9165 9.79688H26.937L29.2441 6.00293H30.5122V11H29.5688V8.60059C29.5688 8.2793 29.5894 7.80306 29.6304 7.17188H29.603L27.2856 11H26.0107V6.00293ZM32.833 8.35449H33.1816C33.5075 8.35449 33.7513 8.29069 33.9131 8.16309C34.0749 8.0332 34.1558 7.84521 34.1558 7.59912C34.1558 7.35075 34.0874 7.16732 33.9507 7.04883C33.8162 6.93034 33.6043 6.87109 33.3149 6.87109H32.833V8.35449ZM35.2256 7.56152C35.2256 8.09928 35.057 8.51058 34.7197 8.79541C34.3848 9.08024 33.9074 9.22266 33.2876 9.22266H32.833V11H31.7734V6.00293H33.3696C33.9757 6.00293 34.436 6.13395 34.7505 6.396C35.0672 6.65576 35.2256 7.04427 35.2256 7.56152Z" fill="white"/>
<defs>
<linearGradient id="paint0_linear" x1="40.5889" y1="10.8831" x2="18.3926" y2="-11.6275" gradientUnits="userSpaceOnUse">
<stop stop-color="#EE0000"/>
<stop offset="1" stop-color="#FF5902"/>
</linearGradient>
</defs>
</svg>
